<svg width="433" height="397" viewBox="0 0 433 397" fill="none" xmlns="http://www.w3.org/2000/svg">
    <path fill-rule="evenodd" clip-rule="evenodd" d="M213.885 378.364C214.041 378.32 214.145 378.172 214.145 378.009V254.514C213.257 249.525 211.526 248.008 205.001 247.014H214.124C214.114 247.005 214.1 247 214.085 247C214.07 247 214.056 247 214.041 247H19C18.6294 247 18.2654 247.188 18.1083 247.524C16.5934 250.759 13.3084 253 9.5 253C4.25329 253 0 248.747 0 243.5C0 238.253 4.25329 234 9.5 234C13.7729 234 17.387 236.821 18.5813 240.702C18.6369 240.883 18.811 241 19 241H209.495L204.478 240.986C210.682 239.795 212.921 239.133 214.145 233.458V94.2529C212.913 88.263 211.746 87.8105 205.023 86.7758H18.9969C18.6735 86.7758 18.3605 86.9489 18.2329 87.2461C16.7794 90.6301 13.4165 93 9.5 93C4.25329 93 0 88.7467 0 83.5C0 78.2533 4.25329 74 9.5 74C13.673 74 17.2175 76.6906 18.4935 80.4316C18.5655 80.6427 18.7739 80.7758 18.9969 80.7758H208.353C211.818 79.5855 213.149 77.6074 214.009 72.014L214.009 80.7758H214.038L214.078 80.776C214.114 80.7765 214.145 80.7472 214.145 80.7105V3.98779C214.145 2.33093 215.488 0.987793 217.145 0.987793C218.802 0.987793 220.145 2.33093 220.145 3.98779V106C220.145 112.075 225.07 117 231.145 117H414.041C414.207 117 414.36 116.896 414.408 116.737C415.592 112.838 419.214 110 423.5 110C428.747 110 433 114.253 433 119.5C433 124.747 428.747 129 423.5 129C419.681 129 416.388 126.746 414.879 123.496C414.732 123.179 414.39 123 414.041 123H231.145C225.07 123 220.145 127.925 220.145 134V273C220.145 279.075 225.07 284 231.145 284H414.041C414.107 284 414.172 284.002 414.236 284.006C414.29 284.01 414.339 283.976 414.353 283.924C415.476 279.929 419.146 277 423.5 277C428.747 277 433 281.253 433 286.5C433 291.747 428.747 296 423.5 296C419.681 296 416.388 293.746 414.879 290.496C414.732 290.179 414.39 290 414.041 290H231.145C225.07 290 220.145 294.925 220.145 301V378.009C220.145 378.406 220.339 378.799 220.695 378.974C223.838 380.523 226 383.759 226 387.5C226 392.747 221.747 397 216.5 397C211.253 397 207 392.747 207 387.5C207 383.16 209.91 379.5 213.885 378.364ZM214.098 241C214.096 241 214.093 241 214.091 241C214.075 241 214.06 241 214.044 241H214.098Z" fill="#A7C9E9"/>
</svg>
